<svg width="32" height="32" viewBox="0 0 32 32" fill="none" xmlns="http://www.w3.org/2000/svg">
<g filter="url(#filter0_d_12704_623)">
<g clip-path="url(#clip0_12704_623)">
<path d="M9.5 21C8.90905 21 8.32389 20.8836 7.77792 20.6575C7.23196 20.4313 6.73588 20.0998 6.31802 19.682C5.90016 19.2641 5.56869 18.768 5.34254 18.2221C5.1164 17.6761 5 17.0909 5 16.5C5 15.9091 5.1164 15.3239 5.34254 14.7779C5.56869 14.232 5.90016 13.7359 6.31802 13.318C6.73588 12.9002 7.23196 12.5687 7.77792 12.3425C8.32389 12.1164 8.90905 12 9.5 12C10.6935 12 11.8381 12.4741 12.682 13.318C13.5259 14.1619 14 15.3065 14 16.5C14 17.6935 13.5259 18.8381 12.682 19.682C11.8381 20.5259 10.6935 21 9.5 21ZM9.5 19C10.163 19 10.7989 18.7366 11.2678 18.2678C11.7366 17.7989 12 17.163 12 16.5C12 15.837 11.7366 15.2011 11.2678 14.7322C10.7989 14.2634 10.163 14 9.5 14C8.83696 14 8.20107 14.2634 7.73223 14.7322C7.26339 15.2011 7 15.837 7 16.5C7 17.163 7.26339 17.7989 7.73223 18.2678C8.20107 18.7366 8.83696 19 9.5 19ZM22.5 21C21.9091 21 21.3239 20.8836 20.7779 20.6575C20.232 20.4313 19.7359 20.0998 19.318 19.682C18.9002 19.2641 18.5687 18.768 18.3425 18.2221C18.1164 17.6761 18 17.0909 18 16.5C18 15.9091 18.1164 15.3239 18.3425 14.7779C18.5687 14.232 18.9002 13.7359 19.318 13.318C19.7359 12.9002 20.232 12.5687 20.7779 12.3425C21.3239 12.1164 21.9091 12 22.5 12C23.6935 12 24.8381 12.4741 25.682 13.318C26.5259 14.1619 27 15.3065 27 16.5C27 17.6935 26.5259 18.8381 25.682 19.682C24.8381 20.5259 23.6935 21 22.5 21ZM22.5 19C23.163 19 23.7989 18.7366 24.2678 18.2678C24.7366 17.7989 25 17.163 25 16.5C25 15.837 24.7366 15.2011 24.2678 14.7322C23.7989 14.2634 23.163 14 22.5 14C21.837 14 21.2011 14.2634 20.7322 14.7322C20.2634 15.2011 20 15.837 20 16.5C20 17.163 20.2634 17.7989 20.7322 18.2678C21.2011 18.7366 21.837 19 22.5 19ZM15.023 10.305L17 12V18H15V13L12.281 10.734C12.039 10.5677 11.8367 10.3502 11.6882 10.0969C11.5398 9.84363 11.4489 9.56076 11.4221 9.26841C11.3953 8.97605 11.4331 8.68137 11.533 8.4053C11.6329 8.12923 11.7923 7.87853 12 7.671L14.828 4.843C15.0137 4.6572 15.2342 4.50981 15.4769 4.40925C15.7197 4.30869 15.9798 4.25693 16.2425 4.25693C16.5052 4.25693 16.7653 4.30869 17.0081 4.40925C17.2508 4.50981 17.4713 4.6572 17.657 4.843L19.071 6.257C20.13 7.31982 21.5038 8.01248 22.988 8.232L22.978 10.247C20.9642 10.0152 19.0884 9.10742 17.657 7.672L15.023 10.305ZM20 5C19.4696 5 18.9609 4.78929 18.5858 4.41421C18.2107 4.03914 18 3.53043 18 3C18 2.46957 18.2107 1.96086 18.5858 1.58579C18.9609 1.21071 19.4696 1 20 1C20.5304 1 21.0391 1.21071 21.4142 1.58579C21.7893 1.96086 22 2.46957 22 3C22 3.53043 21.7893 4.03914 21.4142 4.41421C21.0391 4.78929 20.5304 5 20 5Z" fill="#FFA800"/>
</g>
</g>
<defs>
<filter id="filter0_d_12704_623" x="0" y="0" width="32" height="32" filterUnits="userSpaceOnUse" color-interpolation-filters="sRGB">
<feFlood flood-opacity="0" result="BackgroundImageFix"/>
<feColorMatrix in="SourceAlpha" type="matrix" values="0 0 0 0 0 0 0 0 0 0 0 0 0 0 0 0 0 0 127 0" result="hardAlpha"/>
<feOffset dy="4"/>
<feGaussianBlur stdDeviation="2"/>
<feComposite in2="hardAlpha" operator="out"/>
<feColorMatrix type="matrix" values="0 0 0 0 0 0 0 0 0 0 0 0 0 0 0 0 0 0 0.25 0"/>
<feBlend mode="normal" in2="BackgroundImageFix" result="effect1_dropShadow_12704_623"/>
<feBlend mode="normal" in="SourceGraphic" in2="effect1_dropShadow_12704_623" result="shape"/>
</filter>
<clipPath id="clip0_12704_623">
<rect width="24" height="24" fill="white" transform="translate(4)"/>
</clipPath>
</defs>
</svg>
