<svg width="33" height="32" viewBox="0 0 33 32" fill="none" xmlns="http://www.w3.org/2000/svg">
<g filter="url(#filter0_d_12704_645)">
<g clip-path="url(#clip0_12704_645)">
<path d="M6.33337 22C6.33337 19.8783 7.17623 17.8434 8.67652 16.3431C10.1768 14.8429 12.2116 14 14.3334 14C16.4551 14 18.4899 14.8429 19.9902 16.3431C21.4905 17.8434 22.3334 19.8783 22.3334 22H20.3334C20.3334 20.4087 19.7012 18.8826 18.576 17.7574C17.4508 16.6321 15.9247 16 14.3334 16C12.7421 16 11.216 16.6321 10.0907 17.7574C8.96552 18.8826 8.33337 20.4087 8.33337 22H6.33337ZM14.3334 13C11.0184 13 8.33337 10.315 8.33337 7C8.33337 3.685 11.0184 1 14.3334 1C17.6484 1 20.3334 3.685 20.3334 7C20.3334 10.315 17.6484 13 14.3334 13ZM14.3334 11C16.5434 11 18.3334 9.21 18.3334 7C18.3334 4.79 16.5434 3 14.3334 3C12.1234 3 10.3334 4.79 10.3334 7C10.3334 9.21 12.1234 11 14.3334 11ZM22.6174 14.703C24.0227 15.3359 25.2154 16.3612 26.052 17.6557C26.8886 18.9502 27.3335 20.4587 27.3334 22H25.3334C25.3336 20.844 24.9999 19.7125 24.3725 18.7416C23.745 17.7707 22.8505 17.0017 21.7964 16.527L22.6164 14.703H22.6174ZM21.9294 3.413C22.9369 3.8283 23.7983 4.53354 24.4044 5.43923C25.0104 6.34492 25.3338 7.41024 25.3334 8.5C25.3338 9.87233 24.8211 11.1952 23.8959 12.2088C22.9708 13.2224 21.7 13.8535 20.3334 13.978V11.965C21.0743 11.8589 21.7617 11.518 22.2947 10.9925C22.8276 10.4669 23.1781 9.78432 23.2945 9.04493C23.411 8.30555 23.2874 7.5483 22.9418 6.88435C22.5962 6.22041 22.0468 5.68475 21.3744 5.356L21.9294 3.413Z" fill="#FFA800"/>
</g>
</g>
<defs>
<filter id="filter0_d_12704_645" x="0.333374" y="0" width="32" height="32" filterUnits="userSpaceOnUse" color-interpolation-filters="sRGB">
<feFlood flood-opacity="0" result="BackgroundImageFix"/>
<feColorMatrix in="SourceAlpha" type="matrix" values="0 0 0 0 0 0 0 0 0 0 0 0 0 0 0 0 0 0 127 0" result="hardAlpha"/>
<feOffset dy="4"/>
<feGaussianBlur stdDeviation="2"/>
<feComposite in2="hardAlpha" operator="out"/>
<feColorMatrix type="matrix" values="0 0 0 0 0 0 0 0 0 0 0 0 0 0 0 0 0 0 0.25 0"/>
<feBlend mode="normal" in2="BackgroundImageFix" result="effect1_dropShadow_12704_645"/>
<feBlend mode="normal" in="SourceGraphic" in2="effect1_dropShadow_12704_645" result="shape"/>
</filter>
<clipPath id="clip0_12704_645">
<rect width="24" height="24" fill="white" transform="translate(4.33337)"/>
</clipPath>
</defs>
</svg>
