<svg width="24" height="22" viewBox="0 0 24 22" fill="none" xmlns="http://www.w3.org/2000/svg">
<g filter="url(#filter0_d_12704_657)">
<path d="M18.031 14.617L22.314 18.899L20.899 20.314L16.617 16.031C15.0237 17.3082 13.042 18.0029 11 18C6.032 18 2 13.968 2 9C2 4.032 6.032 0 11 0C15.968 0 20 4.032 20 9C20.0029 11.042 19.3082 13.0237 18.031 14.617ZM16.025 13.875C17.2941 12.5699 18.0029 10.8204 18 9C18 5.132 14.867 2 11 2C7.132 2 4 5.132 4 9C4 12.867 7.132 16 11 16C12.8204 16.0029 14.5699 15.2941 15.875 14.025L16.025 13.875Z" fill="white"/>
</g>
<defs>
<filter id="filter0_d_12704_657" x="-2" y="0" width="28.314" height="28.314" filterUnits="userSpaceOnUse" color-interpolation-filters="sRGB">
<feFlood flood-opacity="0" result="BackgroundImageFix"/>
<feColorMatrix in="SourceAlpha" type="matrix" values="0 0 0 0 0 0 0 0 0 0 0 0 0 0 0 0 0 0 127 0" result="hardAlpha"/>
<feOffset dy="4"/>
<feGaussianBlur stdDeviation="2"/>
<feComposite in2="hardAlpha" operator="out"/>
<feColorMatrix type="matrix" values="0 0 0 0 0 0 0 0 0 0 0 0 0 0 0 0 0 0 0.25 0"/>
<feBlend mode="normal" in2="BackgroundImageFix" result="effect1_dropShadow_12704_657"/>
<feBlend mode="normal" in="SourceGraphic" in2="effect1_dropShadow_12704_657" result="shape"/>
</filter>
</defs>
</svg>
